<svg id="svg" version="1.1" width="614" height="800" xmlns="http://www.w3.org/2000/svg"><path d="M78.594 11.170 C 77.195 13.167,77.000 18.768,77.000 57.023 C 77.000 89.583,77.303 100.903,78.200 101.800 C 78.860 102.460,81.758 103.000,84.641 103.000 C 87.524 103.000,90.160 103.450,90.500 104.000 C 90.904 104.653,118.965 105.000,171.423 105.000 L 251.728 105.000 257.770 107.750 C 269.842 113.245,284.662 127.301,292.878 141.048 C 298.302 150.124,304.614 164.846,308.721 178.000 C 320.177 214.687,318.447 270.174,304.894 300.777 C 303.852 303.129,303.000 305.512,303.000 306.073 C 303.000 307.459,295.982 322.374,295.036 323.000 C 294.620 323.275,293.562 324.900,292.686 326.611 C 289.986 331.883,280.272 343.207,273.217 349.308 C 264.928 356.476,252.346 363.000,246.812 363.000 C 238.241 363.000,218.784 348.103,208.212 333.446 C 201.847 324.621,197.000 316.968,197.000 315.741 C 197.000 315.145,196.388 313.947,195.640 313.079 C 194.322 311.548,186.768 291.051,185.662 286.000 C 185.360 284.625,184.172 279.225,183.020 274.000 C 179.544 258.221,179.012 253.989,179.006 242.051 L 179.000 230.602 174.150 226.051 C 171.482 223.548,166.458 219.475,162.985 217.000 C 159.512 214.525,154.329 210.420,151.467 207.879 C 148.605 205.337,143.616 201.337,140.382 198.990 C 137.147 196.643,132.925 193.292,131.000 191.544 C 129.075 189.796,126.540 187.721,125.367 186.933 C 121.694 184.465,99.164 166.074,98.503 165.004 C 98.156 164.444,96.496 163.273,94.812 162.403 C 92.056 160.978,91.598 160.973,90.212 162.360 C 88.923 163.649,88.888 164.160,89.998 165.497 C 90.959 166.655,91.523 166.772,92.048 165.922 C 92.538 165.129,94.184 166.022,97.136 168.683 C 99.536 170.846,102.678 173.490,104.118 174.558 C 108.105 177.516,123.678 189.996,129.002 194.500 C 131.602 196.700,141.742 204.800,151.534 212.500 C 178.003 233.314,174.817 228.750,175.971 247.500 C 177.954 279.727,187.215 309.231,202.227 331.148 C 207.121 338.294,222.599 354.059,229.080 358.500 C 231.488 360.150,235.407 361.950,237.789 362.500 C 243.492 363.817,243.614 365.421,238.041 365.818 C 229.320 366.439,216.334 362.269,205.155 355.256 C 192.938 347.593,177.726 328.271,170.691 311.481 C 161.279 289.018,156.856 268.550,155.351 240.500 L 154.707 228.500 148.603 222.457 C 145.247 219.133,135.525 210.267,127.000 202.754 C 94.056 173.720,88.468 168.660,87.500 166.982 C 86.202 164.732,80.526 160.000,79.125 160.000 C 78.527 160.000,77.793 161.012,77.494 162.250 C 77.195 163.487,77.074 301.879,77.225 469.786 C 77.468 739.864,77.673 775.182,79.000 776.021 C 79.825 776.543,82.300 776.986,84.500 777.006 C 88.015 777.039,88.682 777.434,90.000 780.272 L 91.500 783.500 255.000 783.791 C 370.489 783.997,420.262 783.760,424.500 782.986 C 433.823 781.281,449.698 775.997,456.937 772.189 C 463.124 768.934,465.326 767.554,476.596 759.865 C 483.226 755.341,500.902 737.495,505.537 730.643 C 522.633 705.376,531.817 687.009,538.610 664.500 C 539.938 660.100,541.919 653.543,543.012 649.929 C 544.106 646.315,545.000 642.182,545.000 640.744 C 545.000 639.306,545.419 637.029,545.930 635.683 C 546.794 633.413,547.851 627.321,550.216 611.000 C 551.793 600.114,552.285 570.280,551.065 559.500 C 549.249 543.460,547.903 533.823,546.806 529.000 C 546.243 526.525,545.414 522.025,544.963 519.000 C 543.944 512.157,538.312 492.668,533.622 479.753 C 527.795 463.709,516.032 442.271,505.499 428.500 C 490.115 408.387,472.045 393.357,454.000 385.668 C 450.425 384.144,446.707 382.464,445.738 381.933 C 443.696 380.815,436.351 378.324,433.654 377.835 C 432.099 377.553,432.650 376.397,437.150 370.500 C 440.088 366.650,442.719 363.275,442.996 363.000 C 443.273 362.725,446.019 358.675,449.098 354.000 C 467.193 326.522,479.741 291.203,484.978 253.000 C 486.757 240.029,487.391 205.216,486.099 191.500 C 484.342 172.845,483.247 163.890,482.123 159.000 C 481.554 156.525,480.587 152.250,479.974 149.500 C 477.177 136.956,476.184 133.213,475.131 131.245 C 474.509 130.082,474.000 128.382,474.000 127.466 C 474.000 124.991,466.645 107.154,459.993 93.500 C 450.144 73.282,437.325 55.856,420.500 39.816 C 414.999 34.571,404.096 27.153,393.682 21.569 C 384.469 16.629,378.390 14.328,371.000 12.985 C 368.525 12.535,364.700 11.603,362.500 10.913 C 359.400 9.942,327.191 9.574,219.344 9.277 L 80.187 8.895 78.594 11.170 M347.357 13.035 C 354.979 13.638,362.321 14.552,363.672 15.066 C 365.024 15.580,367.224 16.000,368.561 16.000 C 374.806 16.000,391.689 23.461,404.500 31.883 C 420.556 42.437,443.291 68.834,454.126 89.500 C 460.915 102.449,471.757 129.433,474.015 139.000 C 480.632 167.040,483.146 187.502,483.353 215.000 C 483.555 241.854,481.651 257.135,474.005 290.000 C 473.303 293.016,470.743 300.291,464.343 317.457 C 458.685 332.631,444.331 356.992,433.873 369.168 C 431.196 372.285,428.892 375.845,428.753 377.079 C 428.493 379.387,429.507 379.877,448.661 386.697 C 456.696 389.558,473.932 400.510,482.100 407.945 C 494.556 419.282,510.803 439.860,517.096 452.268 C 517.868 453.791,520.490 458.966,522.923 463.768 C 526.937 471.692,531.763 483.717,534.053 491.500 C 539.275 509.253,542.714 524.475,546.028 544.500 C 546.665 548.350,547.416 562.300,547.698 575.500 C 548.248 601.320,547.384 611.282,542.537 635.000 C 539.342 650.635,538.308 654.589,533.771 668.500 C 529.560 681.416,517.747 706.453,510.889 717.000 C 506.076 724.402,494.062 739.550,488.275 745.514 C 480.487 753.539,460.813 767.325,450.500 771.984 C 441.770 775.927,427.609 779.305,417.000 779.975 C 410.675 780.374,335.716 780.781,250.425 780.877 L 95.350 781.053 92.737 778.632 C 91.299 777.300,90.396 775.938,90.728 775.605 C 91.061 775.272,154.224 775.000,231.090 775.000 C 327.953 775.000,372.482 774.666,376.174 773.911 C 410.809 766.829,438.907 741.545,459.978 698.500 C 463.209 691.900,466.576 684.475,467.461 682.000 C 478.387 651.445,482.725 631.617,485.621 599.000 C 488.221 569.709,485.548 532.002,478.885 504.000 C 475.842 491.212,471.302 476.139,468.492 469.500 C 467.794 467.850,466.901 465.375,466.507 464.000 C 466.114 462.625,465.249 460.600,464.586 459.500 C 463.923 458.400,462.343 455.025,461.076 452.000 C 458.130 444.964,449.407 430.072,442.409 420.130 C 433.993 408.173,417.193 392.356,405.767 385.632 C 400.504 382.534,395.505 380.000,394.658 380.000 C 393.811 380.000,392.859 379.581,392.542 379.068 C 392.225 378.555,389.453 377.573,386.382 376.886 C 383.311 376.199,380.582 375.074,380.318 374.385 C 380.054 373.697,381.624 370.716,383.808 367.760 C 398.102 348.411,407.362 329.649,415.920 302.698 C 423.588 278.550,426.553 262.792,428.565 235.500 C 432.558 181.309,422.895 127.287,401.680 85.208 C 395.112 72.180,394.963 71.917,389.668 64.000 C 372.955 39.010,351.738 21.225,331.000 14.820 C 322.227 12.111,320.899 10.571,328.000 11.341 C 331.025 11.670,339.736 12.432,347.357 13.035 M324.500 17.268 C 335.066 20.339,348.580 27.716,359.012 36.107 C 364.460 40.489,369.923 45.520,371.153 47.287 C 372.383 49.054,375.270 52.750,377.569 55.500 C 387.357 67.212,399.655 88.716,405.021 103.500 C 417.544 138.007,422.193 160.156,424.183 194.808 C 426.352 232.550,422.506 265.656,411.964 300.000 C 403.968 326.049,395.433 343.616,380.958 363.814 C 377.625 368.466,375.000 373.191,375.000 374.541 C 375.000 377.407,377.744 379.379,384.000 381.011 C 386.475 381.657,392.550 384.136,397.500 386.521 C 424.490 399.523,449.734 431.532,463.728 470.500 C 472.205 494.103,474.157 501.405,477.903 523.515 C 492.971 612.448,466.106 709.370,415.070 750.204 C 399.255 762.858,385.586 768.479,366.866 770.027 C 360.515 770.553,295.589 770.975,219.719 770.984 C 112.001 770.997,83.839 770.742,83.463 769.750 C 83.202 769.063,83.103 633.839,83.244 469.253 L 83.500 170.006 89.500 175.555 C 92.800 178.606,107.425 191.727,122.000 204.712 C 136.575 217.697,149.063 229.009,149.750 229.851 C 150.550 230.831,151.000 234.717,151.000 240.640 C 151.000 252.254,153.320 270.411,156.505 283.728 C 165.468 321.205,185.517 350.978,210.038 363.226 C 220.946 368.674,225.760 369.947,235.500 369.961 C 270.728 370.009,302.997 335.592,315.924 284.180 C 320.124 267.480,321.479 255.278,321.442 234.500 C 321.370 193.501,313.155 162.972,294.263 133.500 C 287.554 123.034,274.104 110.315,264.447 105.305 C 249.031 97.307,254.372 97.716,164.000 97.602 L 83.500 97.500 83.239 56.226 L 82.978 14.952 200.739 15.238 C 309.264 15.501,318.971 15.661,324.500 17.268 M241.500 103.000 C 241.910 103.663,217.010 104.000,167.559 104.000 C 118.520 104.000,93.000 103.658,93.000 103.000 C 93.000 101.619,240.647 101.619,241.500 103.000 M220.000 421.626 C 211.672 423.236,199.689 428.678,190.396 435.072 C 183.433 439.862,172.126 452.024,165.825 461.500 C 144.815 493.096,133.747 536.239,135.298 580.500 C 136.517 615.324,142.716 642.337,155.249 667.446 C 168.046 693.083,182.273 709.247,200.500 718.855 C 206.000 721.755,213.200 724.767,216.500 725.549 C 224.142 727.360,235.630 727.362,244.159 725.554 C 251.489 724.000,264.908 717.710,271.968 712.517 C 279.402 707.050,290.342 695.080,296.399 685.787 C 309.862 665.131,318.954 641.086,323.734 613.500 C 326.054 600.107,326.329 595.929,326.297 574.500 C 326.258 548.648,324.799 535.905,319.471 514.885 C 314.760 496.303,306.439 477.233,296.270 461.719 C 289.172 450.890,275.638 437.379,266.146 431.646 C 253.552 424.039,246.491 421.836,233.500 421.461 C 227.450 421.286,221.375 421.361,220.000 421.626 M248.250 427.886 C 252.327 429.464,251.585 430.865,246.750 430.716 C 242.088 430.572,228.345 435.985,219.542 441.432 C 212.220 445.962,193.133 465.370,187.512 474.000 C 173.212 495.956,163.601 522.972,159.401 553.023 C 157.203 568.744,157.958 600.064,160.894 615.000 C 165.748 639.687,170.169 653.648,177.601 667.754 C 191.268 693.693,205.708 710.410,220.750 717.706 C 227.512 720.985,229.772 723.000,226.688 723.000 C 222.991 723.000,209.629 718.659,203.510 715.469 C 185.829 706.253,173.679 692.948,160.498 668.365 C 155.752 659.514,148.799 640.404,146.067 628.703 C 141.915 610.916,140.780 600.890,140.291 577.674 C 139.772 552.985,140.840 541.603,145.609 521.000 C 151.721 494.595,163.527 470.078,178.658 452.366 C 189.237 439.984,207.401 428.540,219.500 426.636 C 224.515 425.847,245.318 426.751,248.250 427.886 M260.912 434.659 C 268.553 439.088,277.085 446.660,285.250 456.259 C 289.512 461.270,293.000 465.766,293.000 466.252 C 293.000 466.737,294.117 468.597,295.482 470.387 C 298.001 473.690,304.852 487.821,307.590 495.363 C 317.683 523.161,320.097 537.077,320.715 571.000 C 321.186 596.866,320.440 605.286,315.885 625.500 C 310.275 650.393,300.636 671.832,286.887 690.000 C 277.554 702.333,268.306 709.903,254.764 716.298 C 244.595 721.099,232.927 722.410,228.388 719.260 C 226.800 718.158,223.322 716.030,220.660 714.533 C 212.965 710.204,198.630 695.636,192.091 685.500 C 181.151 668.541,177.598 661.461,172.776 647.000 C 167.600 631.480,166.487 626.652,162.516 602.500 C 160.609 590.902,160.609 567.092,162.517 555.500 C 165.916 534.849,166.235 533.428,171.275 516.500 C 175.948 500.803,186.752 478.953,193.980 470.581 C 212.506 449.123,218.992 444.143,239.646 435.521 C 249.505 431.405,254.920 431.186,260.912 434.659 " stroke="none" fill="#000000" fill-rule="evenodd"/></svg>