<svg id="svg" version="1.1" width="614" height="800" xmlns="http://www.w3.org/2000/svg"><path d="M91.507 18.636 C 90.296 19.847,90.164 20.561,90.998 21.386 C 91.828 22.206,92.385 22.039,93.112 20.750 C 94.046 19.094,102.750 19.002,254.300 19.035 C 418.338 19.072,423.948 19.189,434.500 22.817 C 436.150 23.384,440.758 24.818,444.741 26.004 C 448.723 27.190,452.221 28.548,452.513 29.021 C 452.806 29.495,455.173 30.906,457.773 32.158 C 476.716 41.275,500.390 65.144,514.153 89.000 C 528.402 113.700,537.414 138.059,542.639 166.000 C 547.376 191.334,547.439 192.030,547.398 219.000 C 547.358 245.636,547.173 247.743,542.622 273.500 C 534.811 317.712,516.048 357.011,489.833 384.069 C 485.800 388.232,480.025 393.658,477.000 396.126 C 470.370 401.536,453.521 411.591,449.438 412.576 C 447.822 412.965,444.812 414.129,442.749 415.163 C 440.686 416.196,436.636 417.643,433.749 418.379 C 426.854 420.137,426.365 422.492,431.687 428.305 C 435.781 432.776,451.322 455.294,452.995 459.178 C 453.545 460.455,454.390 462.175,454.873 463.000 C 457.521 467.527,460.355 473.806,464.803 485.000 C 469.601 497.073,471.272 501.852,474.420 512.500 C 476.597 519.862,480.704 542.984,481.931 554.789 C 484.130 575.947,482.693 617.761,479.157 635.500 C 478.609 638.250,477.630 643.425,476.981 647.000 C 473.101 668.387,458.358 705.071,446.348 723.223 C 434.688 740.846,417.618 759.165,405.406 767.160 C 397.405 772.398,385.053 779.078,380.000 780.900 C 373.746 783.154,353.645 786.958,347.875 786.979 C 340.748 787.006,335.862 787.967,336.620 789.195 C 337.469 790.568,355.699 789.221,367.000 786.950 C 388.385 782.652,406.877 772.133,425.072 753.917 C 435.975 743.002,437.517 741.084,448.329 725.000 C 460.172 707.382,472.489 678.621,477.879 656.000 C 490.138 604.547,488.374 543.803,473.320 499.000 C 464.608 473.072,453.750 452.620,437.342 431.234 C 433.854 426.688,431.000 422.763,431.000 422.512 C 431.000 422.261,433.588 421.314,436.750 420.408 C 439.913 419.501,443.625 418.192,445.000 417.499 C 446.375 416.805,449.975 415.177,453.000 413.879 C 464.876 408.787,478.644 399.190,489.479 388.455 C 510.281 367.843,527.357 338.774,537.034 307.500 C 551.349 261.237,554.762 211.104,546.327 171.000 C 545.460 166.875,544.393 161.426,543.958 158.892 C 540.155 136.770,527.609 105.404,513.604 83.000 C 504.060 67.734,486.443 47.520,478.000 42.149 C 476.625 41.274,473.925 39.325,472.000 37.817 C 465.609 32.811,451.636 25.842,441.000 22.356 C 432.958 19.720,427.691 18.698,418.500 17.988 C 411.871 17.476,336.375 17.048,249.821 17.031 C 106.082 17.003,93.008 17.135,91.507 18.636 M79.562 25.899 C 78.503 27.613,78.976 638.515,80.037 638.243 C 80.588 638.102,82.718 636.447,84.770 634.564 C 86.821 632.682,93.510 626.723,99.633 621.321 C 127.750 596.518,143.118 582.747,148.700 577.352 L 154.756 571.500 155.348 559.000 C 156.692 530.646,162.622 505.187,172.857 483.823 C 179.196 470.593,190.925 455.352,200.231 448.254 C 221.729 431.855,243.792 429.790,264.407 442.246 C 280.474 451.953,296.210 472.000,304.248 493.000 C 310.564 509.501,312.024 514.673,315.259 532.000 C 318.324 548.418,318.304 583.170,315.220 600.000 C 311.128 622.325,308.028 631.993,299.185 650.000 C 289.395 669.937,273.915 686.726,259.409 693.143 C 248.892 697.796,244.767 697.999,160.662 698.015 C 117.123 698.024,80.933 698.391,80.239 698.831 C 79.250 699.459,79.035 709.181,79.239 744.066 L 79.500 788.500 200.000 788.500 L 320.500 788.500 328.000 786.156 C 354.719 777.805,380.018 755.036,396.510 724.500 C 398.589 720.650,400.618 717.050,401.018 716.500 C 404.152 712.195,414.911 684.040,418.789 670.000 C 424.740 648.452,427.289 631.575,428.983 602.500 C 432.598 540.446,415.830 476.293,384.870 433.727 C 382.110 429.932,380.075 426.248,380.346 425.540 C 380.618 424.832,382.339 423.969,384.170 423.622 C 392.059 422.129,406.429 414.845,416.000 407.487 C 423.229 401.929,435.516 388.994,442.269 379.832 C 491.228 313.404,500.894 195.812,464.368 111.000 C 457.227 94.421,448.514 79.879,436.451 64.410 C 424.687 49.326,405.889 35.405,389.360 29.538 C 376.616 25.014,377.583 25.040,224.809 25.020 C 140.202 25.008,79.887 25.373,79.562 25.899 M373.500 30.396 C 392.646 33.109,416.678 47.757,431.545 65.774 C 456.513 96.032,473.359 138.381,479.967 187.500 C 481.747 200.729,482.352 234.187,481.097 250.000 C 477.636 293.612,465.149 335.048,446.214 365.751 C 435.464 383.184,416.558 402.764,403.388 410.104 C 394.441 415.090,386.649 418.490,381.805 419.520 C 374.050 421.169,373.121 425.577,378.901 433.293 C 399.231 460.429,414.267 497.854,420.968 538.000 C 428.756 584.660,424.491 640.191,409.850 682.779 C 394.234 728.203,370.652 760.004,341.260 775.275 C 322.740 784.898,334.267 784.144,202.000 784.388 C 137.925 784.506,84.938 784.419,84.250 784.194 C 83.277 783.877,83.000 774.823,83.000 743.393 L 83.000 703.000 87.250 702.874 C 89.588 702.805,122.550 702.830,160.500 702.931 C 247.148 703.161,252.844 702.683,267.560 693.947 C 274.765 689.669,287.980 676.731,294.362 667.704 C 305.818 651.500,315.058 626.997,319.704 600.500 C 322.259 585.926,322.231 545.663,319.656 531.000 C 313.319 494.921,300.500 468.208,280.232 448.844 C 266.894 436.101,256.208 431.235,239.513 430.301 C 224.982 429.489,216.445 431.883,203.000 440.540 C 191.776 447.767,178.615 462.811,170.228 478.000 C 159.801 496.881,151.027 533.953,150.985 559.301 C 150.976 564.361,150.639 568.970,150.235 569.544 C 149.831 570.118,141.426 577.768,131.557 586.544 C 121.689 595.320,106.915 608.462,98.727 615.750 C 90.538 623.038,83.668 629.000,83.458 629.000 C 83.249 629.000,83.072 494.253,83.065 329.561 L 83.052 30.123 86.276 29.811 C 93.018 29.160,368.740 29.721,373.500 30.396 M215.794 74.550 C 202.885 77.680,185.144 89.055,175.803 100.190 C 150.263 130.635,137.131 169.331,135.312 219.500 C 134.035 254.748,141.444 292.329,155.378 321.270 C 163.167 337.449,176.544 354.507,188.314 363.269 C 204.663 375.439,213.287 378.511,231.000 378.474 C 242.009 378.451,244.558 378.105,252.367 375.570 C 257.244 373.986,263.988 370.852,267.353 368.605 C 283.920 357.542,301.125 336.152,309.264 316.500 C 318.570 294.029,322.801 277.873,325.502 254.500 C 331.828 199.748,320.186 145.734,294.464 110.500 C 280.175 90.926,265.910 79.979,248.033 74.866 C 240.186 72.622,224.384 72.467,215.794 74.550 M246.330 78.932 C 268.503 85.336,289.414 105.377,302.746 133.000 C 308.734 145.407,310.301 149.555,315.590 167.000 C 325.233 198.804,324.795 251.863,314.588 288.500 C 303.267 329.137,278.733 361.521,252.247 370.789 C 245.285 373.225,243.132 373.498,231.000 373.484 C 216.421 373.466,212.823 372.601,201.275 366.335 C 183.557 356.721,166.043 335.121,155.846 310.306 C 149.319 294.422,146.328 283.966,142.317 263.000 C 139.738 249.517,139.716 203.956,142.283 190.000 C 147.696 160.558,153.309 144.104,164.937 123.578 C 175.534 104.873,189.933 90.777,206.385 83.000 C 218.622 77.216,234.714 75.577,246.330 78.932 M216.500 83.949 C 212.982 85.396,197.258 100.863,192.257 107.797 C 177.716 127.954,170.689 143.442,164.034 170.000 C 162.863 174.675,161.499 180.075,161.004 182.000 C 156.981 197.638,156.690 238.843,160.481 256.000 C 165.430 278.393,171.436 298.036,176.195 307.395 C 179.660 314.209,188.831 328.924,192.271 333.187 C 198.534 340.952,211.452 353.539,216.446 356.743 C 223.857 361.498,239.880 369.000,242.625 369.000 C 246.554 369.000,245.320 367.509,239.750 365.527 C 223.435 359.723,205.883 346.480,194.178 331.146 C 182.250 315.519,171.618 292.038,166.719 270.500 C 165.843 266.650,164.439 260.546,163.599 256.936 C 160.630 244.181,159.491 224.377,160.770 207.744 C 162.347 187.226,168.078 160.338,173.716 147.000 C 184.891 120.563,198.982 101.014,217.500 86.255 C 221.302 83.225,220.841 82.164,216.500 83.949 M233.252 439.085 C 229.633 440.452,220.174 447.810,214.112 453.972 C 207.158 461.041,196.134 477.260,191.595 487.100 C 186.936 497.202,184.469 504.393,180.824 518.500 C 177.331 532.015,176.260 539.402,175.387 556.000 C 174.687 569.283,175.054 568.643,162.584 578.343 C 158.230 581.729,153.055 585.880,151.084 587.566 C 149.113 589.253,143.450 593.730,138.500 597.515 C 133.550 601.301,127.872 605.771,125.883 607.449 C 123.893 609.127,119.684 612.525,116.528 615.000 C 113.372 617.475,109.599 620.566,108.145 621.870 C 106.690 623.173,103.925 625.418,102.000 626.859 C 100.075 628.300,97.530 630.561,96.345 631.883 C 95.017 633.365,93.578 634.052,92.595 633.675 C 91.468 633.242,91.000 633.640,91.000 635.031 C 91.000 636.114,91.665 637.000,92.478 637.000 C 93.291 637.000,103.078 629.678,114.228 620.729 C 125.378 611.780,137.422 602.220,140.993 599.484 C 144.564 596.748,149.563 592.707,152.102 590.505 C 154.641 588.302,160.229 583.800,164.519 580.500 C 178.457 569.780,178.000 570.540,178.000 558.092 C 178.000 538.451,185.052 507.697,193.956 488.510 C 197.739 480.356,206.254 467.166,212.752 459.392 C 216.549 454.850,226.436 446.316,233.099 441.829 C 237.170 439.088,237.254 437.572,233.252 439.085 " stroke="none" fill="#000000" fill-rule="evenodd"/></svg>